<?xml version="1.0" encoding="UTF-8"?>
<svg xmlns="http://www.w3.org/2000/svg" version="1.1" viewBox="0 0 243 405.9">
  <defs>
    <style>
      .cls-1 {
        fill: #161225;
      }
    </style>
  </defs>
  <!-- Generator: Adobe Illustrator 28.7.6, SVG Export Plug-In . SVG Version: 1.2.0 Build 188)  -->
  <g>
    <g id="Layer_2">
      <g id="Layer_1-2">
        <path class="cls-1" d="M72.4,380.5h51.8c6.2,0,11.3,5.7,11.3,12.7s-5.1,12.7-11.3,12.7H11.3c-6.2,0-11.3-5.7-11.3-12.7s5.1-12.7,11.3-12.7h29.2s-6.2-107.6-9-155.3c-.8-14.6,2.4-29.1,9.4-42L116.1,36.9c3.4,14.6,11.1,13.5,11.1,13.5,0,0-50.4,101.7-69.4,139-6.5,12.7-8.8,27-6.8,41.1l21.5,150h0Z"/>
        <path class="cls-1" d="M124.3,78.7s-42.8-31.5-10.9-64.6c11.5-11.9,29.4-30.3,64.7,14,0,0,31.6-5.5,55.2,19.3,0,0,16.1,13.7,6.9,22.4-19.5,18.3-78,73.4-78,73.4,0,0-10.2,9.4-21.9-8.2,0,0-22.3-31-16-56.3h0Z"/>
      </g>
    </g>
  </g>
</svg>