<?xml version="1.0" encoding="UTF-8"?>
<svg xmlns="http://www.w3.org/2000/svg" version="1.1" viewBox="0 0 366.5 136.4">
  <defs>
    <style>
      .cls-1 {
        fill: #161225;
      }
    </style>
  </defs>
  <!-- Generator: Adobe Illustrator 28.7.6, SVG Export Plug-In . SVG Version: 1.2.0 Build 188)  -->
  <g>
    <g id="Layer_2">
      <g id="Layer_1-2">
        <path class="cls-1" d="M364.4,7.3c-5.2-5.3-70-11.2-135.9-3.8-13.1,1.5-14,5.2-45.3,6.5-31.4-1.2-32.2-5-45.3-6.5C71.9-3.9,7.2,1.9,2,7.3-.6,10-.6,28.6,2,31.3c2.6,2.7,10.6,6.2,14.4,18.7,2.4,8.1,5.1,60.1,23.4,75.6,18.1,15.4,76.5,12.5,95.6,2.7,26-13.3,29.6-59.3,33.7-78.3,2.1-9.6,11.9-10.4,14.2-10.4s12.1.8,14.2,10.4c4.1,19,7.8,65,33.7,78.3,19.1,9.8,77.4,12.7,95.6-2.7,18.3-15.5,20.9-67.5,23.4-75.6,3.8-12.5,11.8-16,14.4-18.7s2.6-21.3,0-24h-.2,0ZM148.8,45.9c-1,12.9-5.3,50.9-18,62.3-14.1,12.7-64,16.1-79.8.5-8.3-8.2-16.1-41.2-15.4-69.8.4-17.2,23.3-20.7,56-20.7s59.1,4.8,57.3,27.8h-.1q0,0,0,0ZM315.2,108.7c-15.8,15.6-65.7,12.3-79.8-.5-12.7-11.4-17-49.5-18-62.3-1.8-23,25-27.8,57.3-27.8s55.6,3.5,56,20.7c.7,28.7-7.1,61.7-15.4,69.8h0s-.1,0-.1,0Z"/>
      </g>
    </g>
  </g>
</svg>