<svg width="56" height="56" viewBox="0 0 56 56" fill="none" xmlns="http://www.w3.org/2000/svg">
<path d="M0.4375 7.5752V48.4281C0.4375 52.2842 3.472 55.3187 7.32813 55.3187H48.181C50.0684 55.3187 51.8718 54.4157 53.0215 53.2686C54.2527 52.0375 55.0717 50.4782 55.0717 48.4281V7.5752C55.0717 3.71907 52.0372 0.68457 48.181 0.68457H7.32813C5.278 0.68457 3.71875 1.5062 2.48763 2.7347C1.33788 3.88445 0.4375 5.68782 0.4375 7.5752ZM7.82163 12.988C7.82163 10.363 9.95576 8.06608 12.5808 8.06608C15.2871 8.06608 17.5026 10.363 17.5026 12.988C17.5026 15.6943 15.2871 17.8285 12.5808 17.8285C9.95576 17.8285 7.82163 15.6943 7.82163 12.988ZM21.028 46.7035V21.6846C21.028 21.1097 21.6029 20.6188 22.0124 20.6188H28.9844C29.9688 20.6188 29.9688 21.7686 29.9688 22.5062C31.9375 20.5375 34.4812 20.044 37.1062 20.044C43.5059 20.044 47.6062 23.0785 47.6062 29.8063V46.7061C47.6062 47.281 47.1127 47.7719 46.6218 47.7719H39.403C38.8282 47.7719 38.4187 47.197 38.4187 46.7061V31.447C38.4187 28.9033 37.681 27.5095 34.8093 27.5095C31.1999 27.5095 30.2969 29.8877 30.2969 33.0876V46.7061C30.2969 47.281 29.722 47.7719 29.1472 47.7719H22.0098C21.6003 47.7719 21.0254 47.197 21.0254 46.7061L21.028 46.7035ZM7.98438 46.7035V21.6846C7.98438 21.1097 8.55926 20.6188 8.96876 20.6188H16.1061C16.7624 20.6188 17.1719 21.0283 17.1719 21.6846V46.7035C17.1719 47.2784 16.6784 47.7692 16.1061 47.7692H8.96876C8.47526 47.7692 7.98438 47.1944 7.98438 46.7035Z" fill="#E476E4"/>
</svg>
